<?xml version="1.0" encoding="UTF-8" standalone="no"?>
<!-- Created with Inkscape (http://www.inkscape.org/) -->

<svg
   xmlns:dc="http://purl.org/dc/elements/1.1/"
   xmlns:cc="http://creativecommons.org/ns#"
   xmlns:rdf="http://www.w3.org/1999/02/22-rdf-syntax-ns#"
   xmlns:svg="http://www.w3.org/2000/svg"
   xmlns="http://www.w3.org/2000/svg"
   xmlns:xlink="http://www.w3.org/1999/xlink"
   xmlns:sodipodi="http://sodipodi.sourceforge.net/DTD/sodipodi-0.dtd"
   xmlns:inkscape="http://www.inkscape.org/namespaces/inkscape"
   width="48"
   height="48"
   id="svg2"
   version="1.1"
   inkscape:version="0.48.1 r9760"
   sodipodi:docname="dezoomify_48.svg"
   inkscape:export-filename="/home/john/src/dezoomify/dezoomify-code/icons/dezoomify_48.png"
   inkscape:export-xdpi="90"
   inkscape:export-ydpi="90">
  <defs
     id="defs4">
    <linearGradient
       id="linearGradient5424">
      <stop
         style="stop-color:#9f9f9f;stop-opacity:1;"
         offset="0"
         id="stop5426" />
      <stop
         style="stop-color:#d3d7cf;stop-opacity:0;"
         offset="1"
         id="stop5428" />
    </linearGradient>
    <linearGradient
       id="linearGradient5348">
      <stop
         style="stop-color:#53a406;stop-opacity:1;"
         offset="0"
         id="stop5350" />
      <stop
         style="stop-color:#64c608;stop-opacity:1;"
         offset="1"
         id="stop5352" />
    </linearGradient>
    <linearGradient
       id="linearGradient3209">
      <stop
         style="stop-color:#2e3436;stop-opacity:0.83333331;"
         offset="0"
         id="stop3211" />
      <stop
         style="stop-color:#2e3436;stop-opacity:0;"
         offset="1"
         id="stop3213" />
    </linearGradient>
    <linearGradient
       id="linearGradient3039">
      <stop
         style="stop-color:#eeeeec;stop-opacity:1;"
         offset="0"
         id="stop3041" />
      <stop
         style="stop-color:#eeeeec;stop-opacity:0.39473686;"
         offset="1"
         id="stop3043" />
    </linearGradient>
    <radialGradient
       inkscape:collect="always"
       xlink:href="#linearGradient3209"
       id="radialGradient3215"
       cx="25.013903"
       cy="49.384758"
       fx="25.013903"
       fy="49.384758"
       r="20.506096"
       gradientTransform="matrix(0.82839691,6.2941146e-7,0,0.06448683,4.2924627,40.837842)"
       gradientUnits="userSpaceOnUse" />
    <linearGradient
       id="linearGradient4026">
      <stop
         style="stop-color:#fff9c6;stop-opacity:1"
         offset="0"
         id="stop4028" />
      <stop
         id="stop4042"
         offset="0.54166669"
         style="stop-color:#fff28c;stop-opacity:1;" />
      <stop
         style="stop-color:#ffea85;stop-opacity:1;"
         offset="1"
         id="stop4030" />
    </linearGradient>
    <linearGradient
       id="linearGradient4032">
      <stop
         style="stop-color:#fff7c2;stop-opacity:0.63829786"
         offset="0"
         id="stop4034" />
      <stop
         id="stop4036"
         offset="0.59394139"
         style="stop-color:#fcaf3e;stop-opacity:0.18348624;" />
      <stop
         style="stop-color:#fcaf3e;stop-opacity:0.50458717;"
         offset="0.83850551"
         id="stop4038" />
      <stop
         style="stop-color:#fcaf3e;stop-opacity:1;"
         offset="1"
         id="stop4040" />
    </linearGradient>
    <linearGradient
       id="linearGradient4083">
      <stop
         style="stop-color:#ffffff;stop-opacity:0;"
         offset="0"
         id="stop4085" />
      <stop
         id="stop4089"
         offset="0.75"
         style="stop-color:#ffffff;stop-opacity:0;" />
      <stop
         style="stop-color:#ffffff;stop-opacity:1;"
         offset="1"
         id="stop4087" />
    </linearGradient>
    <linearGradient
       id="linearGradient6470"
       inkscape:collect="always">
      <stop
         id="stop6472"
         offset="0"
         style="stop-color:#ffffff;stop-opacity:1;" />
      <stop
         id="stop6474"
         offset="1"
         style="stop-color:#ffffff;stop-opacity:0;" />
    </linearGradient>
    <linearGradient
       id="linearGradient6497"
       inkscape:collect="always">
      <stop
         id="stop6499"
         offset="0"
         style="stop-color:#ffffff;stop-opacity:1;" />
      <stop
         id="stop6501"
         offset="1"
         style="stop-color:#ffffff;stop-opacity:0;" />
    </linearGradient>
    <linearGradient
       id="linearGradient6513"
       inkscape:collect="always">
      <stop
         id="stop6515"
         offset="0"
         style="stop-color:#ffffff;stop-opacity:1;" />
      <stop
         id="stop6517"
         offset="1"
         style="stop-color:#ffffff;stop-opacity:0;" />
    </linearGradient>
    <linearGradient
       id="linearGradient6538"
       inkscape:collect="always">
      <stop
         id="stop6540"
         offset="0"
         style="stop-color:#ffffff;stop-opacity:1;" />
      <stop
         id="stop6542"
         offset="1"
         style="stop-color:#ffffff;stop-opacity:0;" />
    </linearGradient>
    <linearGradient
       id="linearGradient6527"
       inkscape:collect="always">
      <stop
         id="stop6530"
         offset="0"
         style="stop-color:#ffffff;stop-opacity:1;" />
      <stop
         id="stop6532"
         offset="1"
         style="stop-color:#ffffff;stop-opacity:0;" />
    </linearGradient>
    <linearGradient
       id="linearGradient6549"
       inkscape:collect="always">
      <stop
         id="stop6551"
         offset="0"
         style="stop-color:#ffffff;stop-opacity:1;" />
      <stop
         id="stop6553"
         offset="1"
         style="stop-color:#ffffff;stop-opacity:0;" />
    </linearGradient>
    <linearGradient
       y2="-431.96991"
       x2="285.02859"
       y1="-441.05182"
       x1="271.02170"
       gradientUnits="userSpaceOnUse"
       id="linearGradient6712"
       xlink:href="#linearGradient6470"
       inkscape:collect="always" />
    <linearGradient
       y2="-436.32199"
       x2="289.67633"
       y1="-439.75281"
       x1="287.51730"
       gradientUnits="userSpaceOnUse"
       id="linearGradient6714"
       xlink:href="#linearGradient6497"
       inkscape:collect="always" />
    <linearGradient
       y2="-436.14453"
       x2="289.85379"
       y1="-441.29074"
       x1="286.51172"
       gradientUnits="userSpaceOnUse"
       id="linearGradient6716"
       xlink:href="#linearGradient6513"
       inkscape:collect="always" />
    <linearGradient
       y2="-436.44290"
       x2="289.39124"
       y1="-439.93900"
       x1="285.94086"
       gradientUnits="userSpaceOnUse"
       id="linearGradient6718"
       xlink:href="#linearGradient6538"
       inkscape:collect="always" />
    <linearGradient
       y2="-431.91833"
       x2="279.97546"
       y1="-437.10501"
       x1="275.94193"
       gradientUnits="userSpaceOnUse"
       id="linearGradient6720"
       xlink:href="#linearGradient6527"
       inkscape:collect="always" />
    <linearGradient
       y2="-436.70703"
       x2="289.76562"
       y1="-439.48358"
       x1="286.66589"
       gradientUnits="userSpaceOnUse"
       id="linearGradient6722"
       xlink:href="#linearGradient6549"
       inkscape:collect="always" />
    <linearGradient
       y2="-436.83109"
       x2="288.89954"
       y1="-441.23294"
       x1="284.80219"
       gradientUnits="userSpaceOnUse"
       id="linearGradient6724"
       xlink:href="#linearGradient6538"
       inkscape:collect="always" />
    <inkscape:perspective
       id="perspective108"
       inkscape:persp3d-origin="24 : 16 : 1"
       inkscape:vp_z="48 : 24 : 1"
       inkscape:vp_y="0 : 1000 : 0"
       inkscape:vp_x="0 : 24 : 1"
       sodipodi:type="inkscape:persp3d" />
    <radialGradient
       inkscape:collect="always"
       xlink:href="#linearGradient4026"
       id="radialGradient4950"
       cx="28.610888"
       cy="17.033041"
       fx="28.610888"
       fy="17.033041"
       r="3.5"
       gradientUnits="userSpaceOnUse"
       gradientTransform="matrix(0.31814703,1.9888533e-8,-2.8571428e-8,0.45704301,20.45559,9.7732253)" />
    <clipPath
       clipPathUnits="userSpaceOnUse"
       id="clipPath5144">
      <rect
         style="fill:none;stroke:#edd400;stroke-width:1;stroke-linecap:round;stroke-miterlimit:4;stroke-opacity:1;stroke-dasharray:none"
         id="rect5146"
         width="24.471849"
         height="41.191746"
         x="256.14944"
         y="-454.75739" />
    </clipPath>
    <linearGradient
       inkscape:collect="always"
       xlink:href="#linearGradient6470"
       id="linearGradient5148"
       gradientUnits="userSpaceOnUse"
       x1="271.02170"
       y1="-441.05182"
       x2="285.02859"
       y2="-431.96991" />
    <linearGradient
       inkscape:collect="always"
       xlink:href="#linearGradient6497"
       id="linearGradient5150"
       gradientUnits="userSpaceOnUse"
       x1="287.51730"
       y1="-439.75281"
       x2="289.67633"
       y2="-436.32199" />
    <linearGradient
       inkscape:collect="always"
       xlink:href="#linearGradient6513"
       id="linearGradient5152"
       gradientUnits="userSpaceOnUse"
       x1="286.51172"
       y1="-441.29074"
       x2="289.85379"
       y2="-436.14453" />
    <linearGradient
       inkscape:collect="always"
       xlink:href="#linearGradient6538"
       id="linearGradient5154"
       gradientUnits="userSpaceOnUse"
       x1="285.94086"
       y1="-439.93900"
       x2="289.39124"
       y2="-436.44290" />
    <linearGradient
       inkscape:collect="always"
       xlink:href="#linearGradient6527"
       id="linearGradient5156"
       gradientUnits="userSpaceOnUse"
       x1="275.94193"
       y1="-437.10501"
       x2="279.97546"
       y2="-431.91833" />
    <linearGradient
       inkscape:collect="always"
       xlink:href="#linearGradient6549"
       id="linearGradient5158"
       gradientUnits="userSpaceOnUse"
       x1="286.66589"
       y1="-439.48358"
       x2="289.76562"
       y2="-436.70703" />
    <linearGradient
       inkscape:collect="always"
       xlink:href="#linearGradient6538"
       id="linearGradient5160"
       gradientUnits="userSpaceOnUse"
       x1="284.80219"
       y1="-441.23294"
       x2="288.89954"
       y2="-436.83109" />
    <clipPath
       clipPathUnits="userSpaceOnUse"
       id="clipPath5162">
      <rect
         y="-454.75739"
         x="280.62131"
         height="41.191746"
         width="24.471849"
         id="rect5164"
         style="fill:none;stroke:#edd400;stroke-width:1;stroke-linecap:round;stroke-miterlimit:4;stroke-opacity:1;stroke-dasharray:none" />
    </clipPath>
    <clipPath
       clipPathUnits="userSpaceOnUse"
       id="clipPath5162-7">
      <rect
         y="-454.75739"
         x="280.62131"
         height="41.191746"
         width="24.471849"
         id="rect5164-3"
         style="fill:none;stroke:#edd400;stroke-width:1;stroke-linecap:round;stroke-miterlimit:4;stroke-opacity:1;stroke-dasharray:none" />
    </clipPath>
    <linearGradient
       inkscape:collect="always"
       xlink:href="#linearGradient6470-1"
       id="linearGradient5002-5"
       gradientUnits="userSpaceOnUse"
       x1="271.0217"
       y1="-441.05182"
       x2="285.02859"
       y2="-431.96991" />
    <linearGradient
       id="linearGradient6470-1"
       inkscape:collect="always">
      <stop
         id="stop6472-5"
         offset="0"
         style="stop-color:#ffffff;stop-opacity:1;" />
      <stop
         id="stop6474-9"
         offset="1"
         style="stop-color:#ffffff;stop-opacity:0;" />
    </linearGradient>
    <linearGradient
       inkscape:collect="always"
       xlink:href="#linearGradient6497-3"
       id="linearGradient5004-4"
       gradientUnits="userSpaceOnUse"
       x1="287.5173"
       y1="-439.75281"
       x2="289.67633"
       y2="-436.32199" />
    <linearGradient
       id="linearGradient6497-3"
       inkscape:collect="always">
      <stop
         id="stop6499-1"
         offset="0"
         style="stop-color:#ffffff;stop-opacity:1;" />
      <stop
         id="stop6501-7"
         offset="1"
         style="stop-color:#ffffff;stop-opacity:0;" />
    </linearGradient>
    <linearGradient
       inkscape:collect="always"
       xlink:href="#linearGradient6513-4"
       id="linearGradient5006-8"
       gradientUnits="userSpaceOnUse"
       x1="286.51172"
       y1="-441.29074"
       x2="289.85379"
       y2="-436.14453" />
    <linearGradient
       id="linearGradient6513-4"
       inkscape:collect="always">
      <stop
         id="stop6515-6"
         offset="0"
         style="stop-color:#ffffff;stop-opacity:1;" />
      <stop
         id="stop6517-3"
         offset="1"
         style="stop-color:#ffffff;stop-opacity:0;" />
    </linearGradient>
    <linearGradient
       inkscape:collect="always"
       xlink:href="#linearGradient6538-7"
       id="linearGradient5008-0"
       gradientUnits="userSpaceOnUse"
       x1="285.94086"
       y1="-439.939"
       x2="289.39124"
       y2="-436.4429" />
    <linearGradient
       id="linearGradient6538-7"
       inkscape:collect="always">
      <stop
         id="stop6540-7"
         offset="0"
         style="stop-color:#ffffff;stop-opacity:1;" />
      <stop
         id="stop6542-0"
         offset="1"
         style="stop-color:#ffffff;stop-opacity:0;" />
    </linearGradient>
    <linearGradient
       inkscape:collect="always"
       xlink:href="#linearGradient6527-6"
       id="linearGradient5010-0"
       gradientUnits="userSpaceOnUse"
       x1="275.94193"
       y1="-437.10501"
       x2="279.97546"
       y2="-431.91833" />
    <linearGradient
       id="linearGradient6527-6"
       inkscape:collect="always">
      <stop
         id="stop6530-7"
         offset="0"
         style="stop-color:#ffffff;stop-opacity:1;" />
      <stop
         id="stop6532-7"
         offset="1"
         style="stop-color:#ffffff;stop-opacity:0;" />
    </linearGradient>
    <linearGradient
       inkscape:collect="always"
       xlink:href="#linearGradient6549-2"
       id="linearGradient5012-9"
       gradientUnits="userSpaceOnUse"
       x1="286.66589"
       y1="-439.48358"
       x2="289.76562"
       y2="-436.70703" />
    <linearGradient
       id="linearGradient6549-2"
       inkscape:collect="always">
      <stop
         id="stop6551-2"
         offset="0"
         style="stop-color:#ffffff;stop-opacity:1;" />
      <stop
         id="stop6553-4"
         offset="1"
         style="stop-color:#ffffff;stop-opacity:0;" />
    </linearGradient>
    <linearGradient
       inkscape:collect="always"
       xlink:href="#linearGradient6538-7"
       id="linearGradient5014-9"
       gradientUnits="userSpaceOnUse"
       x1="284.80219"
       y1="-441.23294"
       x2="288.89954"
       y2="-436.83109" />
    <radialGradient
       inkscape:collect="always"
       xlink:href="#linearGradient3209"
       id="radialGradient5346"
       gradientUnits="userSpaceOnUse"
       gradientTransform="matrix(0.82839691,6.2941146e-7,0,0.06448683,4.2924627,40.837842)"
       cx="25.013903"
       cy="49.384758"
       fx="25.013903"
       fy="49.384758"
       r="20.506096" />
    <radialGradient
       inkscape:collect="always"
       xlink:href="#linearGradient5348"
       id="radialGradient5354"
       cx="12.551146"
       cy="1039.3949"
       fx="12.551146"
       fy="1039.3949"
       r="15.5"
       gradientTransform="matrix(1.984461,0.26231397,-0.04452002,0.33681549,33.917768,687.14152)"
       gradientUnits="userSpaceOnUse" />
    <linearGradient
       inkscape:collect="always"
       xlink:href="#linearGradient5424"
       id="linearGradient5430"
       x1="28"
       y1="7"
       x2="44"
       y2="3"
       gradientUnits="userSpaceOnUse" />
  </defs>
  <sodipodi:namedview
     id="base"
     pagecolor="#ffffff"
     bordercolor="#666666"
     borderopacity="1.0"
     inkscape:pageopacity="0.0"
     inkscape:pageshadow="2"
     inkscape:zoom="4"
     inkscape:cx="-25.145542"
     inkscape:cy="42.896304"
     inkscape:document-units="px"
     inkscape:current-layer="layer1"
     showgrid="false"
     inkscape:window-width="1485"
     inkscape:window-height="874"
     inkscape:window-x="114"
     inkscape:window-y="0"
     inkscape:window-maximized="1">
    <inkscape:grid
       type="xygrid"
       id="grid2985"
       empspacing="5"
       visible="true"
       enabled="true"
       snapvisiblegridlinesonly="true" />
  </sodipodi:namedview>
  <metadata
     id="metadata7">
    <rdf:RDF>
      <cc:Work
         rdf:about="">
        <dc:format>image/svg+xml</dc:format>
        <dc:type
           rdf:resource="http://purl.org/dc/dcmitype/StillImage" />
        <dc:title></dc:title>
      </cc:Work>
    </rdf:RDF>
  </metadata>
  <g
     inkscape:label="Layer 1"
     inkscape:groupmode="layer"
     id="layer1"
     transform="translate(0,-1004.3622)">
    <rect
       style="fill:#ffffff;stroke:none;stroke-width:1;stroke-linecap:round;stroke-miterlimit:4;stroke-opacity:1;stroke-dasharray:none;fill-opacity:1"
       id="rect5455"
       width="48"
       height="48"
       x="0"
       y="0"
       transform="translate(0,1004.3622)" />
    <path
       sodipodi:nodetypes="ccccc"
       transform="translate(0,1004.3622)"
       inkscape:connector-curvature="0"
       id="path5422"
       d="M 23.5,7.5 31,1 l 15,0 0,16 -6.5,6.5"
       style="fill:url(#linearGradient5430);fill-opacity:1;stroke:none" />
    <path
       transform="matrix(0.77217611,0,0,1.5650145,3.6459455,969.01085)"
       d="m 45.166445,43.403805 a 20.506096,2.1213202 0 1 1 -41.012192,0 20.506096,2.1213202 0 1 1 41.012192,0 z"
       sodipodi:ry="2.1213202"
       sodipodi:rx="20.506096"
       sodipodi:cy="43.403805"
       sodipodi:cx="24.660349"
       id="path5344"
       style="fill:url(#radialGradient5346);fill-opacity:1;stroke:none"
       sodipodi:type="arc" />
    <path
       sodipodi:type="arc"
       style="fill:url(#radialGradient3215);fill-opacity:1;stroke:none"
       id="path3207"
       sodipodi:cx="24.660349"
       sodipodi:cy="43.403805"
       sodipodi:rx="20.506096"
       sodipodi:ry="2.1213202"
       d="m 45.166445,43.403805 a 20.506096,2.1213202 0 1 1 -41.012192,0 20.506096,2.1213202 0 1 1 41.012192,0 z"
       transform="matrix(1.2206941,0,0,2.8566812,-10.071072,920.94935)" />
    <path
       style="fill:#729fcf;stroke:none"
       d="m 5,1046.3622 0,-31 15,0 0,16 16,0 0,15 z"
       id="path3066"
       inkscape:connector-curvature="0" />
    <path
       style="fill:url(#radialGradient5354);stroke:none;fill-opacity:1"
       d="m 9.5625,1035.831 c -1.5196769,0.028 -3.0307482,0.3817 -4.5625,0.9687 l 0,9.5625 31,0 0,-7.9062 c -1.360985,-0.4212 -3,-0.5938 -5.40625,0.062 -9.00714,3.4289 -13.787043,-2.7448 -21.03125,-2.6875 z"
       id="path3057"
       inkscape:connector-curvature="0"
       sodipodi:nodetypes="ccccccc" />
    <g
       inkscape:label="Layer 1"
       id="layer1-9"
       transform="translate(-49.727488,999.12591)">
      <g
         transform="matrix(0.5083479,0,0,0.5083479,-72.815579,249.18023)"
         id="g5022"
         clip-path="url(#clipPath5144)">
        <path
           style="fill:#c4c5c2;fill-opacity:1;stroke:#888a85;stroke-width:1.96715677;stroke-linecap:butt;stroke-linejoin:miter;stroke-miterlimit:2;stroke-opacity:1;stroke-dasharray:none;stroke-dashoffset:0"
           d="m 280.5,-445.5 c -2.27083,0 -4.10991,1.55028 -4.71875,3.625 -0.69323,-0.36383 -1.44451,-0.625 -2.28125,-0.625 -2.76,0 -5.00001,2.23999 -5,5 0,0.57893 0.16252,1.1077 0.34375,1.625 -1.37347,0.77074 -2.34375,2.189 -2.34375,3.875 0,2.484 2.016,4.50001 4.5,4.5 0.17713,0 18.82287,0 19,0 2.48399,0 4.5,-2.016 4.5,-4.5 0,-1.686 -0.97028,-3.10426 -2.34375,-3.875 0.18124,-0.51729 0.34375,-1.04608 0.34375,-1.625 0,-2.76 -2.24,-4.99999 -5,-5 -0.83674,0 -1.58802,0.26117 -2.28125,0.625 -0.60884,-2.07472 -2.44792,-3.625 -4.71875,-3.625 z"
           id="path5024"
           sodipodi:nodetypes="ccsscsssscsscc"
           inkscape:connector-curvature="0" />
        <path
           style="fill:url(#linearGradient5148);fill-opacity:1;stroke:none"
           d="m 280.5,-445 c -2.18972,0 -3.7236,1.33577 -4.39555,3.84352 -0.66846,-0.34362 -1.54759,-0.83335 -2.35445,-0.83335 -2.71651,0 -4.75514,1.93882 -4.75513,4.54554 0,0.54677 0.26721,1.33344 0.44196,1.82201 -1.32443,0.72795 -2.43683,1.8905 -2.43683,3.37255 0,2.34605 1.54617,4.25009 4.33928,4.25009 0.17081,0 18.15064,0 18.32144,0 2.77101,0 4.33928,-1.90404 4.33928,-4.25009 0,-1.59237 -1.1124,-2.66669 -2.43683,-3.39464 0.17476,-0.48856 0.46407,-1.25316 0.46407,-1.79992 0,-2.60671 -2.11581,-4.56763 -4.77723,-4.56764 -0.80687,0 -1.64181,0.48974 -2.31027,0.83336 C 284.29089,-443.60011 282.68973,-445 280.5,-445 z"
           id="path5026"
           sodipodi:nodetypes="ccsscsssscsscc"
           inkscape:connector-curvature="0" />
        <g
           id="g5028">
          <path
             transform="matrix(1.056604,0,0,1.056604,-24.19818,21.86331)"
             d="m 291.6875,-437.59375 c 0,1.82944 -1.48306,3.3125 -3.3125,3.3125 -1.82944,0 -3.3125,-1.48306 -3.3125,-3.3125 0,-1.82944 1.48306,-3.3125 3.3125,-3.3125 1.82944,0 3.3125,1.48306 3.3125,3.3125 z"
             sodipodi:ry="3.3125"
             sodipodi:rx="3.3125"
             sodipodi:cy="-437.59375"
             sodipodi:cx="288.375"
             id="path5030"
             style="fill:#c4c5c2;fill-opacity:1;stroke:none"
             sodipodi:type="arc" />
          <path
             transform="matrix(1.056604,0,0,1.056604,-24.19818,21.86331)"
             d="m 291.6875,-437.59375 c 0,1.82944 -1.48306,3.3125 -3.3125,3.3125 -1.82944,0 -3.3125,-1.48306 -3.3125,-3.3125 0,-1.82944 1.48306,-3.3125 3.3125,-3.3125 1.82944,0 3.3125,1.48306 3.3125,3.3125 z"
             sodipodi:ry="3.3125"
             sodipodi:rx="3.3125"
             sodipodi:cy="-437.59375"
             sodipodi:cx="288.375"
             id="path5032"
             style="fill:url(#linearGradient5150);fill-opacity:1;stroke:none"
             sodipodi:type="arc" />
        </g>
        <rect
           style="fill:#c4c5c2;fill-opacity:1;stroke:none"
           id="rect5034"
           width="20"
           height="9"
           x="271"
           y="-438" />
        <path
           sodipodi:type="arc"
           style="fill:#c4c5c2;fill-opacity:1;stroke:none"
           id="path5036"
           sodipodi:cx="288.375"
           sodipodi:cy="-437.59375"
           sodipodi:rx="3.3125"
           sodipodi:ry="3.3125"
           d="m 291.6875,-437.59375 c 0,1.82944 -1.48306,3.3125 -3.3125,3.3125 -1.82944,0 -3.3125,-1.48306 -3.3125,-3.3125 0,-1.82944 1.48306,-3.3125 3.3125,-3.3125 1.82944,0 3.3125,1.48306 3.3125,3.3125 z"
           transform="matrix(0.90566,0,0,0.90566,9.830195,-35.68869)" />
        <g
           id="g5038">
          <path
             transform="matrix(1.056604,0,0,1.056604,-17.19811,24.86321)"
             d="m 291.6875,-437.59375 c 0,1.82944 -1.48306,3.3125 -3.3125,3.3125 -1.82944,0 -3.3125,-1.48306 -3.3125,-3.3125 0,-1.82944 1.48306,-3.3125 3.3125,-3.3125 1.82944,0 3.3125,1.48306 3.3125,3.3125 z"
             sodipodi:ry="3.3125"
             sodipodi:rx="3.3125"
             sodipodi:cy="-437.59375"
             sodipodi:cx="288.375"
             id="path5040"
             style="fill:#c4c5c2;fill-opacity:1;stroke:none"
             sodipodi:type="arc" />
          <path
             transform="matrix(1.056604,0,0,1.056604,-17.19818,24.86331)"
             d="m 291.6875,-437.59375 c 0,1.82944 -1.48306,3.3125 -3.3125,3.3125 -1.82944,0 -3.3125,-1.48306 -3.3125,-3.3125 0,-1.82944 1.48306,-3.3125 3.3125,-3.3125 1.82944,0 3.3125,1.48306 3.3125,3.3125 z"
             sodipodi:ry="3.3125"
             sodipodi:rx="3.3125"
             sodipodi:cy="-437.59375"
             sodipodi:cx="288.375"
             id="path5042"
             style="fill:url(#linearGradient5152);fill-opacity:1;stroke:none"
             sodipodi:type="arc" />
        </g>
        <g
           id="g5044">
          <path
             transform="matrix(1.056604,0,0,1.056604,-31.19818,24.86331)"
             d="m 291.6875,-437.59375 c 0,1.82944 -1.48306,3.3125 -3.3125,3.3125 -1.82944,0 -3.3125,-1.48306 -3.3125,-3.3125 0,-1.82944 1.48306,-3.3125 3.3125,-3.3125 1.82944,0 3.3125,1.48306 3.3125,3.3125 z"
             sodipodi:ry="3.3125"
             sodipodi:rx="3.3125"
             sodipodi:cy="-437.59375"
             sodipodi:cx="288.375"
             id="path5046"
             style="fill:#c4c5c2;fill-opacity:1;stroke:none"
             sodipodi:type="arc" />
          <path
             transform="matrix(1.056604,0,0,1.056604,-31.19818,24.86331)"
             d="m 291.6875,-437.59375 c 0,1.82944 -1.48306,3.3125 -3.3125,3.3125 -1.82944,0 -3.3125,-1.48306 -3.3125,-3.3125 0,-1.82944 1.48306,-3.3125 3.3125,-3.3125 1.82944,0 3.3125,1.48306 3.3125,3.3125 z"
             sodipodi:ry="3.3125"
             sodipodi:rx="3.3125"
             sodipodi:cy="-437.59375"
             sodipodi:cx="288.375"
             id="path5048"
             style="fill:url(#linearGradient5154);fill-opacity:1;stroke:none"
             sodipodi:type="arc" />
        </g>
        <g
           id="g5050"
           transform="translate(-1,0)">
          <path
             id="path5052"
             d="m 280.46875,-440.96875 c -3.57938,0 -6.46875,2.92063 -6.46875,6.5 0,2.37068 1.34943,4.33779 3.25,5.46875 l 6.46875,0 c 1.90057,-1.13096 3.25,-3.12931 3.25,-5.5 0,-3.57938 -2.92063,-6.46875 -6.5,-6.46875 z"
             style="fill:#c4c5c2;fill-opacity:1;stroke:none"
             inkscape:connector-curvature="0" />
          <path
             id="path5054"
             d="m 280.5,-441 c -3.588,0 -6.5,2.91201 -6.5,6.5 0,2.3764 1.34485,4.36632 3.25,5.5 l 6.5,0 c 1.90515,-1.13368 3.25,-3.1236 3.25,-5.5 0,-3.588 -2.912,-6.49999 -6.5,-6.5 z"
             style="fill:url(#linearGradient5156);fill-opacity:1;stroke:none"
             inkscape:connector-curvature="0" />
        </g>
        <path
           sodipodi:type="arc"
           style="fill:url(#linearGradient5158);fill-opacity:1;stroke:none"
           id="path5056"
           sodipodi:cx="288.375"
           sodipodi:cy="-437.59375"
           sodipodi:rx="3.3125"
           sodipodi:ry="3.3125"
           d="m 291.6875,-437.59375 c 0,1.82944 -1.48306,3.3125 -3.3125,3.3125 -1.82944,0 -3.3125,-1.48306 -3.3125,-3.3125 0,-1.82944 1.48306,-3.3125 3.3125,-3.3125 1.82944,0 3.3125,1.48306 3.3125,3.3125 z"
           transform="matrix(0.90566,0,0,0.90566,9.830296,-35.68884)" />
        <path
           style="fill:#888a85;fill-opacity:1;fill-rule:evenodd;stroke:none"
           d="m 292.9564,-437.33396 c -0.002,2.68456 -3.26926,3.71395 -3.26926,3.71395 0,0 2.34874,-1.62595 2.33685,-3.70501 0,0 0.93241,-0.009 0.93241,-0.009 z"
           id="path5058"
           sodipodi:nodetypes="ccss"
           inkscape:connector-curvature="0" />
        <g
           id="g5060"
           transform="matrix(1.142857,0,0,1.142857,-28.57139,67.00008)">
          <path
             transform="matrix(1.056604,0,0,1.056604,-31.19818,24.86331)"
             d="m 291.6875,-437.59375 c 0,1.82944 -1.48306,3.3125 -3.3125,3.3125 -1.82944,0 -3.3125,-1.48306 -3.3125,-3.3125 0,-1.82944 1.48306,-3.3125 3.3125,-3.3125 1.82944,0 3.3125,1.48306 3.3125,3.3125 z"
             sodipodi:ry="3.3125"
             sodipodi:rx="3.3125"
             sodipodi:cy="-437.59375"
             sodipodi:cx="288.375"
             id="path5062"
             style="fill:#c4c5c2;fill-opacity:1;stroke:none"
             sodipodi:type="arc" />
          <path
             transform="matrix(1.056604,0,0,1.056604,-31.19818,24.86331)"
             d="m 291.6875,-437.59375 c 0,1.82944 -1.48306,3.3125 -3.3125,3.3125 -1.82944,0 -3.3125,-1.48306 -3.3125,-3.3125 0,-1.82944 1.48306,-3.3125 3.3125,-3.3125 1.82944,0 3.3125,1.48306 3.3125,3.3125 z"
             sodipodi:ry="3.3125"
             sodipodi:rx="3.3125"
             sodipodi:cy="-437.59375"
             sodipodi:cx="288.375"
             id="path5064"
             style="fill:url(#linearGradient5160);fill-opacity:1;stroke:none"
             sodipodi:type="arc" />
        </g>
      </g>
    </g>
    <rect
       y="1014.8622"
       x="4.5"
       height="15.999983"
       width="16"
       id="rect3062"
       style="fill:none;stroke:#2e3436;stroke-width:1;stroke-linecap:round;stroke-miterlimit:4;stroke-opacity:1;stroke-dasharray:none" />
    <path
       sodipodi:nodetypes="ccccc"
       inkscape:connector-curvature="0"
       id="path5432"
       d="m 36.5,1038.456 c -1.360985,-0.4212 -3.5,-0.5938 -5.90625,0.062 -9.00714,3.4289 -13.787043,-2.7448 -21.03125,-2.6875 l 0,5e-4 c -1.5196769,0.028 -3.5307482,0.3817 -5.0625,0.9687"
       style="fill:none;stroke:#4e9a06" />
    <path
       style="fill:none;stroke:#73d216"
       d="m 36.5,1039.456 c -1.360985,-0.4212 -3.5,-0.5938 -5.90625,0.062 -9.00714,3.4289 -13.787043,-2.7448 -21.03125,-2.6875 l 0,5e-4 c -1.5196769,0.028 -3.5307482,0.3817 -5.0625,0.9687"
       id="path5434"
       inkscape:connector-curvature="0"
       sodipodi:nodetypes="ccccc" />
    <rect
       style="fill:none;stroke:#2e3436;stroke-width:1;stroke-linecap:round;stroke-miterlimit:4;stroke-opacity:1;stroke-dasharray:none"
       id="rect2987"
       width="16"
       height="15.999983"
       x="4.5"
       y="1030.8622" />
    <rect
       y="1030.8622"
       x="20.5"
       height="15.999983"
       width="16"
       id="rect3047"
       style="fill:none;stroke:#2e3436;stroke-width:1;stroke-linecap:round;stroke-miterlimit:4;stroke-opacity:1;stroke-dasharray:none" />
    <rect
       style="opacity:0.5;fill:none;stroke:#eeeeec;stroke-width:1;stroke-linecap:round;stroke-miterlimit:4;stroke-opacity:1;stroke-dasharray:none"
       id="rect3028"
       width="14"
       height="13.999985"
       x="5.5"
       y="1031.8622" />
    <rect
       y="1031.8622"
       x="21.5"
       height="13.999985"
       width="14"
       id="rect3049"
       style="opacity:0.5;fill:none;stroke:#eeeeec;stroke-width:1;stroke-linecap:round;stroke-miterlimit:4;stroke-opacity:1;stroke-dasharray:none" />
    <g
       id="g3094"
       transform="translate(2,-3)">
      <rect
         y="1014.8622"
         x="21.5"
         height="15.999983"
         width="16"
         id="rect5342"
         style="fill:#729fcf;fill-opacity:1;stroke:none;stroke-width:1;stroke-linecap:round;stroke-miterlimit:4;stroke-opacity:1;stroke-dasharray:none" />
      <path
         transform="translate(0,1004.3622)"
         d="m 33,18 a 3,3 0 1 1 -6,0 3,3 0 1 1 6,0 z"
         sodipodi:ry="3"
         sodipodi:rx="3"
         sodipodi:cy="18"
         sodipodi:cx="30"
         id="path3068"
         style="fill:url(#radialGradient4950);fill-opacity:1;stroke:#edd400;stroke-width:1;stroke-linecap:round;stroke-miterlimit:4;stroke-opacity:1;stroke-dasharray:none"
         sodipodi:type="arc" />
      <path
         inkscape:transform-center-y="5"
         sodipodi:nodetypes="cccc"
         inkscape:connector-curvature="0"
         id="path3070"
         d="m 29.5,1026.3622 1,0 -0.5,2 -0.5,-2"
         style="fill:#edd400;stroke:none" />
      <path
         inkscape:transform-center-x="2.2834935"
         style="fill:#edd400;stroke:none"
         d="m 27.566987,1025.5763 0.866026,0.5 -1.433013,1.4821 0.566987,-1.9821"
         id="path3072"
         inkscape:connector-curvature="0"
         sodipodi:nodetypes="cccc"
         inkscape:transform-center-y="4.20515" />
      <path
         inkscape:transform-center-y="2.2835"
         sodipodi:nodetypes="cccc"
         inkscape:connector-curvature="0"
         id="path3074"
         d="m 26.285899,1023.9292 0.5,0.866 -1.982075,0.567 1.482075,-1.433"
         style="fill:#edd400;stroke:none"
         inkscape:transform-center-x="4.2051385" />
      <path
         inkscape:transform-center-x="5.0000065"
         style="fill:#edd400;stroke:none"
         d="m 25.999994,1021.8622 1.3e-5,1 -2.000027,-0.5 2.000014,-0.5"
         id="path3076"
         inkscape:connector-curvature="0"
         sodipodi:nodetypes="cccc" />
      <path
         inkscape:transform-center-y="-2.2835"
         sodipodi:nodetypes="cccc"
         inkscape:connector-curvature="0"
         id="path3078"
         d="m 26.785893,1019.9292 -0.499989,0.866 -1.482074,-1.433 1.982063,0.567"
         style="fill:#edd400;stroke:none"
         inkscape:transform-center-x="4.2051385" />
      <path
         inkscape:transform-center-x="2.2835065"
         style="fill:#edd400;stroke:none"
         d="m 28.433002,1018.6481 -0.866003,0.5 -0.567014,-1.9821 1.433017,1.4821"
         id="path3080"
         inkscape:connector-curvature="0"
         sodipodi:nodetypes="cccc"
         inkscape:transform-center-y="-4.20515" />
      <path
         inkscape:transform-center-y="-5"
         sodipodi:nodetypes="cccc"
         inkscape:connector-curvature="0"
         id="path3082"
         d="m 30.49999,1018.3622 -0.999981,0 0.500002,-2 0.499979,2"
         style="fill:#edd400;stroke:none" />
      <path
         inkscape:transform-center-x="-2.2835025"
         style="fill:#edd400;stroke:none"
         d="m 32.433004,1019.1481 -0.866009,-0.5 1.433014,-1.482 -0.567005,1.982"
         id="path3084"
         inkscape:connector-curvature="0"
         sodipodi:nodetypes="cccc"
         inkscape:transform-center-y="-4.2051" />
      <path
         inkscape:transform-center-y="-2.28345"
         sodipodi:nodetypes="cccc"
         inkscape:connector-curvature="0"
         id="path3086"
         d="m 33.714093,1020.7952 -0.499986,-0.866 1.982027,-0.5669 -1.482041,1.4329"
         style="fill:#edd400;stroke:none"
         inkscape:transform-center-x="-4.205121" />
      <path
         inkscape:transform-center-x="-4.9999665"
         style="fill:#edd400;stroke:none"
         d="m 33.999999,1022.8622 -1e-6,-1 1.999936,0.5001 -1.999935,0.4999"
         id="path3088"
         inkscape:connector-curvature="0"
         sodipodi:nodetypes="cccc" />
      <path
         inkscape:transform-center-y="2.28355"
         sodipodi:nodetypes="cccc"
         inkscape:connector-curvature="0"
         id="path3090"
         d="m 33.214101,1024.7952 0.499999,-0.866 1.481945,1.4331 -1.981944,-0.5671"
         style="fill:#edd400;stroke:none"
         inkscape:transform-center-x="-4.2050735" />
      <path
         inkscape:transform-center-x="-2.2834255"
         style="fill:#edd400;stroke:none"
         d="m 31.566993,1026.0763 0.866012,-0.5 0.566852,1.9821 -1.432864,-1.4821"
         id="path3092"
         inkscape:connector-curvature="0"
         sodipodi:nodetypes="cccc"
         inkscape:transform-center-y="4.20515" />
      <g
         id="g4958"
         transform="matrix(0.53246319,0,0,0.53246319,-127.41433,1258.4902)"
         clip-path="url(#clipPath5162-7)">
        <path
           inkscape:connector-curvature="0"
           sodipodi:nodetypes="ccsscsssscsscc"
           id="path4960"
           d="m 280.5,-445.5 c -2.27083,0 -4.10991,1.55028 -4.71875,3.625 -0.69323,-0.36383 -1.44451,-0.625 -2.28125,-0.625 -2.76,0 -5.00001,2.23999 -5,5 0,0.57893 0.16252,1.1077 0.34375,1.625 -1.37347,0.77074 -2.34375,2.189 -2.34375,3.875 0,2.484 2.016,4.50001 4.5,4.5 0.17713,0 18.82287,0 19,0 2.48399,0 4.5,-2.016 4.5,-4.5 0,-1.686 -0.97028,-3.10426 -2.34375,-3.875 0.18124,-0.51729 0.34375,-1.04608 0.34375,-1.625 0,-2.76 -2.24,-4.99999 -5,-5 -0.83674,0 -1.58802,0.26117 -2.28125,0.625 -0.60884,-2.07472 -2.44792,-3.625 -4.71875,-3.625 z"
           style="fill:#c4c5c2;fill-opacity:1;stroke:#888a85;stroke-width:1.87806416;stroke-linecap:butt;stroke-linejoin:miter;stroke-miterlimit:2;stroke-opacity:1;stroke-dasharray:none;stroke-dashoffset:0" />
        <path
           inkscape:connector-curvature="0"
           sodipodi:nodetypes="ccsscsssscsscc"
           id="path4962"
           d="m 280.5,-445 c -2.18972,0 -3.7236,1.33577 -4.39555,3.84352 -0.66846,-0.34362 -1.54759,-0.83335 -2.35445,-0.83335 -2.71651,0 -4.75514,1.93882 -4.75513,4.54554 0,0.54677 0.26721,1.33344 0.44196,1.82201 -1.32443,0.72795 -2.43683,1.8905 -2.43683,3.37255 0,2.34605 1.54617,4.25009 4.33928,4.25009 0.17081,0 18.15064,0 18.32144,0 2.77101,0 4.33928,-1.90404 4.33928,-4.25009 0,-1.59237 -1.1124,-2.66669 -2.43683,-3.39464 0.17476,-0.48856 0.46407,-1.25316 0.46407,-1.79992 0,-2.60671 -2.11581,-4.56763 -4.77723,-4.56764 -0.80687,0 -1.64181,0.48974 -2.31027,0.83336 C 284.29089,-443.60011 282.68973,-445 280.5,-445 z"
           style="fill:url(#linearGradient5002-5);fill-opacity:1;stroke:none" />
        <g
           id="g4964">
          <path
             sodipodi:type="arc"
             style="fill:#c4c5c2;fill-opacity:1;stroke:none"
             id="path4966"
             sodipodi:cx="288.375"
             sodipodi:cy="-437.59375"
             sodipodi:rx="3.3125"
             sodipodi:ry="3.3125"
             d="m 291.6875,-437.59375 c 0,1.82944 -1.48306,3.3125 -3.3125,3.3125 -1.82944,0 -3.3125,-1.48306 -3.3125,-3.3125 0,-1.82944 1.48306,-3.3125 3.3125,-3.3125 1.82944,0 3.3125,1.48306 3.3125,3.3125 z"
             transform="matrix(1.056604,0,0,1.056604,-24.19818,21.86331)" />
          <path
             sodipodi:type="arc"
             style="fill:url(#linearGradient5004-4);fill-opacity:1;stroke:none"
             id="path4968"
             sodipodi:cx="288.375"
             sodipodi:cy="-437.59375"
             sodipodi:rx="3.3125"
             sodipodi:ry="3.3125"
             d="m 291.6875,-437.59375 c 0,1.82944 -1.48306,3.3125 -3.3125,3.3125 -1.82944,0 -3.3125,-1.48306 -3.3125,-3.3125 0,-1.82944 1.48306,-3.3125 3.3125,-3.3125 1.82944,0 3.3125,1.48306 3.3125,3.3125 z"
             transform="matrix(1.056604,0,0,1.056604,-24.19818,21.86331)" />
        </g>
        <rect
           y="-438"
           x="271"
           height="9"
           width="20"
           id="rect4970"
           style="fill:#c4c5c2;fill-opacity:1;stroke:none" />
        <path
           transform="matrix(0.90566,0,0,0.90566,9.830195,-35.68869)"
           d="m 291.6875,-437.59375 c 0,1.82944 -1.48306,3.3125 -3.3125,3.3125 -1.82944,0 -3.3125,-1.48306 -3.3125,-3.3125 0,-1.82944 1.48306,-3.3125 3.3125,-3.3125 1.82944,0 3.3125,1.48306 3.3125,3.3125 z"
           sodipodi:ry="3.3125"
           sodipodi:rx="3.3125"
           sodipodi:cy="-437.59375"
           sodipodi:cx="288.375"
           id="path4972"
           style="fill:#c4c5c2;fill-opacity:1;stroke:none"
           sodipodi:type="arc" />
        <g
           id="g4974">
          <path
             sodipodi:type="arc"
             style="fill:#c4c5c2;fill-opacity:1;stroke:none"
             id="path4976"
             sodipodi:cx="288.375"
             sodipodi:cy="-437.59375"
             sodipodi:rx="3.3125"
             sodipodi:ry="3.3125"
             d="m 291.6875,-437.59375 c 0,1.82944 -1.48306,3.3125 -3.3125,3.3125 -1.82944,0 -3.3125,-1.48306 -3.3125,-3.3125 0,-1.82944 1.48306,-3.3125 3.3125,-3.3125 1.82944,0 3.3125,1.48306 3.3125,3.3125 z"
             transform="matrix(1.056604,0,0,1.056604,-17.19811,24.86321)" />
          <path
             sodipodi:type="arc"
             style="fill:url(#linearGradient5006-8);fill-opacity:1;stroke:none"
             id="path4978"
             sodipodi:cx="288.375"
             sodipodi:cy="-437.59375"
             sodipodi:rx="3.3125"
             sodipodi:ry="3.3125"
             d="m 291.6875,-437.59375 c 0,1.82944 -1.48306,3.3125 -3.3125,3.3125 -1.82944,0 -3.3125,-1.48306 -3.3125,-3.3125 0,-1.82944 1.48306,-3.3125 3.3125,-3.3125 1.82944,0 3.3125,1.48306 3.3125,3.3125 z"
             transform="matrix(1.056604,0,0,1.056604,-17.19818,24.86331)" />
        </g>
        <g
           id="g4980">
          <path
             sodipodi:type="arc"
             style="fill:#c4c5c2;fill-opacity:1;stroke:none"
             id="path4982"
             sodipodi:cx="288.375"
             sodipodi:cy="-437.59375"
             sodipodi:rx="3.3125"
             sodipodi:ry="3.3125"
             d="m 291.6875,-437.59375 c 0,1.82944 -1.48306,3.3125 -3.3125,3.3125 -1.82944,0 -3.3125,-1.48306 -3.3125,-3.3125 0,-1.82944 1.48306,-3.3125 3.3125,-3.3125 1.82944,0 3.3125,1.48306 3.3125,3.3125 z"
             transform="matrix(1.056604,0,0,1.056604,-31.19818,24.86331)" />
          <path
             sodipodi:type="arc"
             style="fill:url(#linearGradient5008-0);fill-opacity:1;stroke:none"
             id="path4984"
             sodipodi:cx="288.375"
             sodipodi:cy="-437.59375"
             sodipodi:rx="3.3125"
             sodipodi:ry="3.3125"
             d="m 291.6875,-437.59375 c 0,1.82944 -1.48306,3.3125 -3.3125,3.3125 -1.82944,0 -3.3125,-1.48306 -3.3125,-3.3125 0,-1.82944 1.48306,-3.3125 3.3125,-3.3125 1.82944,0 3.3125,1.48306 3.3125,3.3125 z"
             transform="matrix(1.056604,0,0,1.056604,-31.19818,24.86331)" />
        </g>
        <g
           transform="translate(-1,0)"
           id="g4986">
          <path
             inkscape:connector-curvature="0"
             style="fill:#c4c5c2;fill-opacity:1;stroke:none"
             d="m 280.46875,-440.96875 c -3.57938,0 -6.46875,2.92063 -6.46875,6.5 0,2.37068 1.34943,4.33779 3.25,5.46875 l 6.46875,0 c 1.90057,-1.13096 3.25,-3.12931 3.25,-5.5 0,-3.57938 -2.92063,-6.46875 -6.5,-6.46875 z"
             id="path4988" />
          <path
             inkscape:connector-curvature="0"
             style="fill:url(#linearGradient5010-0);fill-opacity:1;stroke:none"
             d="m 280.5,-441 c -3.588,0 -6.5,2.91201 -6.5,6.5 0,2.3764 1.34485,4.36632 3.25,5.5 l 6.5,0 c 1.90515,-1.13368 3.25,-3.1236 3.25,-5.5 0,-3.588 -2.912,-6.49999 -6.5,-6.5 z"
             id="path4990" />
        </g>
        <path
           transform="matrix(0.90566,0,0,0.90566,9.830296,-35.68884)"
           d="m 291.6875,-437.59375 c 0,1.82944 -1.48306,3.3125 -3.3125,3.3125 -1.82944,0 -3.3125,-1.48306 -3.3125,-3.3125 0,-1.82944 1.48306,-3.3125 3.3125,-3.3125 1.82944,0 3.3125,1.48306 3.3125,3.3125 z"
           sodipodi:ry="3.3125"
           sodipodi:rx="3.3125"
           sodipodi:cy="-437.59375"
           sodipodi:cx="288.375"
           id="path4992"
           style="fill:url(#linearGradient5012-9);fill-opacity:1;stroke:none"
           sodipodi:type="arc" />
        <path
           inkscape:connector-curvature="0"
           sodipodi:nodetypes="ccss"
           id="path4994"
           d="m 292.9564,-437.33396 c -0.002,2.68456 -3.26926,3.71395 -3.26926,3.71395 0,0 2.34874,-1.62595 2.33685,-3.70501 0,0 0.93241,-0.009 0.93241,-0.009 z"
           style="fill:#888a85;fill-opacity:1;fill-rule:evenodd;stroke:none" />
        <g
           transform="matrix(1.142857,0,0,1.142857,-28.57139,67.00008)"
           id="g4996">
          <path
             sodipodi:type="arc"
             style="fill:#c4c5c2;fill-opacity:1;stroke:none"
             id="path4998"
             sodipodi:cx="288.375"
             sodipodi:cy="-437.59375"
             sodipodi:rx="3.3125"
             sodipodi:ry="3.3125"
             d="m 291.6875,-437.59375 c 0,1.82944 -1.48306,3.3125 -3.3125,3.3125 -1.82944,0 -3.3125,-1.48306 -3.3125,-3.3125 0,-1.82944 1.48306,-3.3125 3.3125,-3.3125 1.82944,0 3.3125,1.48306 3.3125,3.3125 z"
             transform="matrix(1.056604,0,0,1.056604,-31.19818,24.86331)" />
          <path
             sodipodi:type="arc"
             style="fill:url(#linearGradient5014-9);fill-opacity:1;stroke:none"
             id="path5000"
             sodipodi:cx="288.375"
             sodipodi:cy="-437.59375"
             sodipodi:rx="3.3125"
             sodipodi:ry="3.3125"
             d="m 291.6875,-437.59375 c 0,1.82944 -1.48306,3.3125 -3.3125,3.3125 -1.82944,0 -3.3125,-1.48306 -3.3125,-3.3125 0,-1.82944 1.48306,-3.3125 3.3125,-3.3125 1.82944,0 3.3125,1.48306 3.3125,3.3125 z"
             transform="matrix(1.056604,0,0,1.056604,-31.19818,24.86331)" />
        </g>
      </g>
      <path
         sodipodi:type="arc"
         style="fill:none;fill-opacity:1;stroke:#eeeeec;stroke-width:1.50000000000000000;stroke-linecap:round;stroke-miterlimit:4;stroke-opacity:1;stroke-dasharray:none;opacity:0.5"
         id="path4952"
         sodipodi:cx="30"
         sodipodi:cy="18"
         sodipodi:rx="3"
         sodipodi:ry="3"
         d="m 33,18 a 3,3 0 1 1 -6,0 3,3 0 1 1 6,0 z"
         transform="matrix(0.66666667,0,0,0.66666667,10,1010.3622)" />
      <rect
         style="fill:none;fill-opacity:1;stroke:#2e3436;stroke-width:1;stroke-linecap:round;stroke-miterlimit:4;stroke-opacity:1;stroke-dasharray:none"
         id="rect3001"
         width="16"
         height="15.999983"
         x="21.5"
         y="1014.8622" />
      <rect
         y="1015.8622"
         x="22.5"
         height="13.999985"
         width="14"
         id="rect3032"
         style="opacity:0.5;fill:none;stroke:#eeeeec;stroke-width:1;stroke-linecap:round;stroke-miterlimit:4;stroke-opacity:1;stroke-dasharray:none" />
    </g>
    <rect
       y="1015.8622"
       x="5.5"
       height="13.999985"
       width="14"
       id="rect3064"
       style="opacity:0.5;fill:none;stroke:#eeeeec;stroke-width:1;stroke-linecap:round;stroke-miterlimit:4;stroke-opacity:1;stroke-dasharray:none" />
  </g>
</svg>
